<svg id="Layer_1" data-name="Layer 1" xmlns="http://www.w3.org/2000/svg" xmlns:xlink="http://www.w3.org/1999/xlink" viewBox="0 0 851 180.77"><defs><style>.cls-1{fill:#49c6e5;}.cls-2{fill:url(#linear-gradient);}.cls-3{fill:url(#linear-gradient-2);}.cls-4{fill:url(#linear-gradient-3);}.cls-5{fill:url(#linear-gradient-4);}.cls-6{fill:url(#linear-gradient-5);}.cls-7{fill:url(#linear-gradient-6);}.cls-8{fill:url(#linear-gradient-7);}.cls-9{fill:url(#linear-gradient-8);}.cls-10{fill:url(#linear-gradient-9);}.cls-11{fill:url(#linear-gradient-10);}.cls-12{fill:url(#linear-gradient-11);}.cls-13{fill:url(#linear-gradient-12);}.cls-14{fill:url(#linear-gradient-13);}.cls-15{fill:url(#linear-gradient-14);}.cls-16{fill:url(#linear-gradient-15);}.cls-17{fill:url(#linear-gradient-16);}.cls-18{fill:url(#linear-gradient-17);}.cls-19{fill:url(#linear-gradient-18);}</style><linearGradient id="linear-gradient" x1="435.64" y1="109.89" x2="458.92" y2="109.89" gradientUnits="userSpaceOnUse"><stop offset="0" stop-color="#49c6e5"/><stop offset="1" stop-color="#098499"/></linearGradient><linearGradient id="linear-gradient-2" x1="440.82" y1="109.89" x2="453.74" y2="109.89" gradientUnits="userSpaceOnUse"><stop offset="0" stop-color="#098499"/><stop offset="1" stop-color="#49c6e5"/></linearGradient><linearGradient id="linear-gradient-3" x1="406.11" y1="48.46" x2="422.83" y2="48.46" xlink:href="#linear-gradient"/><linearGradient id="linear-gradient-4" x1="408.86" y1="48.46" x2="420.08" y2="48.46" xlink:href="#linear-gradient-2"/><linearGradient id="linear-gradient-5" x1="483.26" y1="22.38" x2="499.99" y2="22.38" xlink:href="#linear-gradient"/><linearGradient id="linear-gradient-6" x1="477.04" y1="156.63" x2="493.77" y2="156.63" xlink:href="#linear-gradient"/><linearGradient id="linear-gradient-7" x1="486.02" y1="22.38" x2="497.24" y2="22.38" xlink:href="#linear-gradient-2"/><linearGradient id="linear-gradient-8" x1="380.14" y1="158.37" x2="396.87" y2="158.37" xlink:href="#linear-gradient"/><linearGradient id="linear-gradient-9" x1="194.86" y1="68.96" x2="215.51" y2="68.96" xlink:href="#linear-gradient-2"/><linearGradient id="linear-gradient-10" x1="195.51" y1="70.15" x2="216.15" y2="70.15" xlink:href="#linear-gradient"/><linearGradient id="linear-gradient-11" x1="151.58" y1="117.56" x2="158.99" y2="117.56" xlink:href="#linear-gradient-2"/><linearGradient id="linear-gradient-12" x1="151.58" y1="90.38" x2="236.21" y2="90.38" xlink:href="#linear-gradient"/><linearGradient id="linear-gradient-13" x1="165.84" y1="106.97" x2="173.25" y2="106.97" xlink:href="#linear-gradient-2"/><linearGradient id="linear-gradient-14" x1="479.8" y1="156.63" x2="491.02" y2="156.63" xlink:href="#linear-gradient-2"/><linearGradient id="linear-gradient-15" x1="382.89" y1="158.37" x2="394.11" y2="158.37" xlink:href="#linear-gradient-2"/><linearGradient id="linear-gradient-16" x1="151.58" y1="117.56" x2="158.99" y2="117.56" xlink:href="#linear-gradient"/><linearGradient id="linear-gradient-17" x1="165.84" y1="106.97" x2="173.25" y2="106.97" xlink:href="#linear-gradient"/><linearGradient id="linear-gradient-18" x1="181.22" y1="100.62" x2="188.65" y2="100.62" xlink:href="#linear-gradient"/></defs><path class="cls-1" d="M255,135.1q-7.81,0-11.68-4.44t-3.86-12.85V65.32h9.87v51.9a14.54,14.54,0,0,0,.88,5.33,6.59,6.59,0,0,0,2.64,3.27,8.27,8.27,0,0,0,4.4,1.07q1.17,0,2.25-.09a11.27,11.27,0,0,0,2.05-.39l-.2,7.91a30.53,30.53,0,0,1-3.22.59A25.28,25.28,0,0,1,255,135.1Z"/><path class="cls-1" d="M291.74,135.1a28.31,28.31,0,0,1-13.44-3,21,21,0,0,1-8.7-8.5,26.59,26.59,0,0,1-3.08-13.14,26.76,26.76,0,0,1,3-13,22.17,22.17,0,0,1,8.31-8.7,23.1,23.1,0,0,1,12-3.13,21.53,21.53,0,0,1,11.39,2.88,19,19,0,0,1,7.28,8.16,28.91,28.91,0,0,1,2.54,12.61v3.33H274.34v-6.06h30.1l-1.66,1.36q0-7.32-3.22-11.33t-9.29-4a12.9,12.9,0,0,0-12.6,8.11,22.07,22.07,0,0,0-1.67,8.89v.59a22.47,22.47,0,0,0,1.81,9.53,12.54,12.54,0,0,0,5.33,5.82,17.71,17.71,0,0,0,8.7,2,25.35,25.35,0,0,0,8.06-1.32,24,24,0,0,0,7.48-4.15l2.93,6.84a22.69,22.69,0,0,1-8.31,4.59A32.78,32.78,0,0,1,291.74,135.1Z"/><path class="cls-1" d="M340,135.1a20.15,20.15,0,0,1-11-3,19.66,19.66,0,0,1-7.38-8.6A30.6,30.6,0,0,1,319,110.38a30.17,30.17,0,0,1,2.64-13.2,20.19,20.19,0,0,1,7.38-8.5,19.93,19.93,0,0,1,11-3,18.81,18.81,0,0,1,10.8,3.08A14.89,14.89,0,0,1,356.93,97h-1.08V65.32h9.87v68.9h-9.67V123.47h1a15.43,15.43,0,0,1-6.11,8.46A18.52,18.52,0,0,1,340,135.1Zm2.54-7.62a12.16,12.16,0,0,0,9.77-4.4q3.72-4.39,3.72-12.7t-3.72-12.71a13.36,13.36,0,0,0-19.64,0Q329,102,329,110.38t3.71,12.7A12.28,12.28,0,0,0,342.56,127.48Z"/><path class="cls-1" d="M396.31,135.1a39.46,39.46,0,0,1-7.42-.68,33.14,33.14,0,0,1-6.65-1.95,23,23,0,0,1-5.38-3.13l2.84-6.65a33.51,33.51,0,0,0,5.18,2.89,26.62,26.62,0,0,0,5.72,1.8,30.06,30.06,0,0,0,5.81.59q5.18,0,7.82-1.86a5.79,5.79,0,0,0,2.64-5,4.8,4.8,0,0,0-1.76-4,12.93,12.93,0,0,0-5.28-2.2l-9.28-1.86q-6.06-1.26-9.19-4.49a11.29,11.29,0,0,1-3.13-8.21,12.82,12.82,0,0,1,2.45-7.82,15.49,15.49,0,0,1,6.84-5.13,26.47,26.47,0,0,1,10.16-1.81,30.42,30.42,0,0,1,6.45.68,29.37,29.37,0,0,1,5.92,2,16.32,16.32,0,0,1,4.74,3.22L412,98.16a18.41,18.41,0,0,0-4.25-2.83,24.37,24.37,0,0,0-4.93-1.81,20.64,20.64,0,0,0-5.09-.64q-5.18,0-7.77,1.91a6.06,6.06,0,0,0-2.59,5.13,5.4,5.4,0,0,0,1.57,4,9.46,9.46,0,0,0,4.88,2.24l9.29,1.86q6.35,1.27,9.63,4.3a10.65,10.65,0,0,1,3.27,8.21,12.88,12.88,0,0,1-2.44,7.82,14.93,14.93,0,0,1-6.89,5A28.69,28.69,0,0,1,396.31,135.1Z"/><path class="cls-1" d="M505.82,135.1a28.31,28.31,0,0,1-13.44-3,21,21,0,0,1-8.7-8.5,26.59,26.59,0,0,1-3.08-13.14,26.65,26.65,0,0,1,3-13,22.08,22.08,0,0,1,8.3-8.7,23.1,23.1,0,0,1,12-3.13,21.53,21.53,0,0,1,11.39,2.88,19,19,0,0,1,7.28,8.16,28.91,28.91,0,0,1,2.54,12.61v3.33H488.42v-6.06h30.11l-1.67,1.36q0-7.32-3.22-11.33t-9.29-4a12.9,12.9,0,0,0-12.6,8.11,22.07,22.07,0,0,0-1.66,8.89v.59a22.48,22.48,0,0,0,1.8,9.53,12.54,12.54,0,0,0,5.33,5.82,17.74,17.74,0,0,0,8.7,2,25.3,25.3,0,0,0,8.06-1.32,24,24,0,0,0,7.48-4.15l2.93,6.84a22.69,22.69,0,0,1-8.31,4.59A32.78,32.78,0,0,1,505.82,135.1Z"/><path class="cls-1" d="M587.07,136.08a25.56,25.56,0,0,1-11.87-2.59,18.47,18.47,0,0,1-7.77-7.33A21.94,21.94,0,0,1,564.69,115a31.91,31.91,0,0,1,3.13-14.22,25.26,25.26,0,0,1,8.89-10.21,24.09,24.09,0,0,1,13.59-3.82q7.51,0,11.92,3.43a16.82,16.82,0,0,1,6,9,29.4,29.4,0,0,1,.69,12l-.3,2.25H571.63l.78-5.67h31.08l-1.76,1.37a19.37,19.37,0,0,0-.29-8.07,10.69,10.69,0,0,0-3.71-5.72,11.93,11.93,0,0,0-7.53-2.15,14.91,14.91,0,0,0-8.5,2.3,16.23,16.23,0,0,0-5.33,5.82,22.45,22.45,0,0,0-2.49,7.52l-.49,2.45a19.62,19.62,0,0,0,.63,9.38,11.84,11.84,0,0,0,4.89,6.21,16.11,16.11,0,0,0,8.75,2.19,26.47,26.47,0,0,0,8.35-1.27,19.88,19.88,0,0,0,7-4l2.64,6a21.87,21.87,0,0,1-8.26,4.69A32.58,32.58,0,0,1,587.07,136.08Z"/><path class="cls-1" d="M633.79,136.08q-7.23,0-11.93-2.69a17.13,17.13,0,0,1-7-7.47,24.77,24.77,0,0,1-2.35-11A35.6,35.6,0,0,1,614,104.56a27.31,27.31,0,0,1,4.64-9,22.57,22.57,0,0,1,8-6.4,26.15,26.15,0,0,1,11.63-2.4,27.1,27.1,0,0,1,9.09,1.52,17.2,17.2,0,0,1,6.84,4.15l-3,6.26a16.65,16.65,0,0,0-5.57-3.57,19,19,0,0,0-6.94-1.22,16,16,0,0,0-7.86,1.81,14.71,14.71,0,0,0-5.28,4.83,22.63,22.63,0,0,0-3,6.7,29.32,29.32,0,0,0-1,7.57c0,4.31,1,7.74,3.13,10.32s5.47,3.86,10.16,3.86a19,19,0,0,0,12.22-4.79l2.44,6.45a16.8,16.8,0,0,1-4.49,3,27.46,27.46,0,0,1-5.53,1.86A26.63,26.63,0,0,1,633.79,136.08Z"/><path class="cls-1" d="M652.65,135.2l11-68.9h8.89l-5.08,31.86h-1.08a18.84,18.84,0,0,1,7.09-8.45,20.25,20.25,0,0,1,11.19-3,17.2,17.2,0,0,1,8.85,2.11,11.61,11.61,0,0,1,5.08,6.49q1.51,4.41.44,11.15l-4.6,28.73h-8.89l4.59-28.64a17.66,17.66,0,0,0,0-7.08,6.89,6.89,0,0,0-2.79-4.16A10,10,0,0,0,681.68,94a15.69,15.69,0,0,0-7.92,1.9,14.66,14.66,0,0,0-5.37,5.38,22.12,22.12,0,0,0-2.74,8.26l-4.1,25.7Z"/><path class="cls-1" d="M540.82,136.89l16.49-103.1H515.6l1.26-8.73h93.28l-1.43,8.73H567l-16.34,103.1Z"/><path class="cls-1" d="M491.58,42.65a19.47,19.47,0,0,0,3.23-.27,20.28,20.28,0,0,0,17.08-20,21.74,21.74,0,0,0-.25-3.19,20.26,20.26,0,1,0-31.91,19.58c.35.26.71.5,1.08.73l-21,47.9a25.76,25.76,0,0,0-21.16-1.76l-12.8-24.28a17.2,17.2,0,0,0-15.22-29.68,17.21,17.21,0,0,0,3.81,34,17,17,0,0,0,3.87-.45,13.23,13.23,0,0,0,1.31-.36L432.32,89a25.71,25.71,0,0,0-6,35.8l-22.66,20.12a19.87,19.87,0,0,0-6.38-4.8,20.26,20.26,0,1,0-8.76,38.56,20.55,20.55,0,0,0,6.76-1.17,20.25,20.25,0,0,0,12.36-25.85c-.07-.18-.13-.36-.21-.54L431.2,130a25.63,25.63,0,0,0,30.48,1.24l8.82,11.69a20.77,20.77,0,0,0-3.22,4.68,20.27,20.27,0,0,0,18.11,29.32,20.53,20.53,0,0,0,6.44-1A20.26,20.26,0,1,0,476,138.68l-9.14-12.1a25.66,25.66,0,0,0-1.22-34.69l21.8-49.67A19.79,19.79,0,0,0,491.58,42.65Zm-74.3,18.07a12.58,12.58,0,0,1-5.62-24.52,12.35,12.35,0,0,1,2.83-.32,12.5,12.5,0,0,1,6.66,1.92,12.42,12.42,0,0,1,5.58,7.85,12.59,12.59,0,0,1-9.45,15.07Zm-15.42,104a14.81,14.81,0,1,1,.61-11.32A14.69,14.69,0,0,1,401.86,164.76ZM472.16,150a14.87,14.87,0,0,1,13.25-8.19,14.8,14.8,0,0,1,14,10.13,14.81,14.81,0,1,1-27.3-1.94Zm-6.07-40.11a18.81,18.81,0,1,1-18.81-18.81A18.83,18.83,0,0,1,466.09,109.89ZM477,24.71a14.84,14.84,0,0,1,12.3-17,15.34,15.34,0,0,1,2.33-.18A14.81,14.81,0,1,1,477,24.71Z"/><circle class="cls-2" cx="447.28" cy="109.89" r="11.64"/><circle class="cls-3" cx="447.28" cy="109.89" r="6.46"/><circle class="cls-4" cx="414.47" cy="48.46" r="8.36"/><circle class="cls-5" cx="414.47" cy="48.46" r="5.61"/><circle class="cls-6" cx="491.63" cy="22.38" r="8.36"/><circle class="cls-7" cx="485.41" cy="156.63" r="8.36"/><circle class="cls-8" cx="491.63" cy="22.38" r="5.61"/><circle class="cls-9" cx="388.5" cy="158.37" r="8.36"/><path class="cls-10" d="M215.5,59.87a0,0,0,0,1,0,0c-.06,2.11-.67,11-6.2,13.18a5.94,5.94,0,0,0-7.52-7.36h0c-3.27,1.23-4.81,4.8-5.53,7.58a26.26,26.26,0,0,0-.78,5.57,15.82,15.82,0,0,1,20.06-19Z"/><path class="cls-11" d="M215.65,60.37a15.83,15.83,0,0,1-20.14,18.74h.08c0-.11,0-10.8,6.11-13.2a6,6,0,0,0,7.49,7.37v0a7.08,7.08,0,0,0,2.46-1.56,12.89,12.89,0,0,0,3.25-6.27A26.52,26.52,0,0,0,215.65,60.37Z"/><polygon class="cls-12" points="158.99 98.44 158.99 136.68 151.58 136.68 158.99 98.44"/><path class="cls-13" d="M236.21,109.9c.14,14.87-15.52,23.26-20.33,25.47a37.16,37.16,0,0,1-15.71,3.39,44.42,44.42,0,0,1-16.68-3.33l-2.27-1,7.43-67.69v62.68c4.79,1.62,14.4,3.68,24.13-.81,3.78-1.74,16.12-8.24,16-18.68-.07-8-7.8-17.37-20.65-19.59a21.81,21.81,0,0,1-9.4-.17L200.39,83a14.52,14.52,0,0,0,6.75,0c6.77-1.68,12.23-8.68,12.45-15.93.23-8-5.88-15.55-14.27-17.64H159V91.89h-7.41V42h54.6l.39.09c12.18,2.78,20.76,13.37,20.43,25.18a25.22,25.22,0,0,1-9.12,18.3C228.69,90.24,236.1,99.62,236.21,109.9Z"/><polygon class="cls-14" points="173.25 77.25 173.25 136.68 165.84 136.68 173.25 77.25"/><circle class="cls-15" cx="485.41" cy="156.63" r="5.61"/><circle class="cls-16" cx="388.5" cy="158.37" r="5.61"/><polygon class="cls-17" points="158.99 98.44 151.58 136.68 151.58 98.44 158.99 98.44"/><polygon class="cls-18" points="173.25 77.25 165.84 136.68 165.84 77.25 173.25 77.25"/><polygon class="cls-19" points="188.65 66.77 181.22 134.46 181.22 66.77 188.65 66.77"/></svg>